<svg width="48" height="48" viewBox="0 0 48 48" fill="none" xmlns="http://www.w3.org/2000/svg">
<g clip-path="url(#clip0_1621_503)">
<path fill-rule="evenodd" clip-rule="evenodd" d="M35.4832 11.2207H31.7033C30.9664 11.2261 30.4009 11.7647 30.3956 12.4976C30.3903 13.7799 30.3903 15.0568 30.3956 16.3391C30.401 17.0667 30.9665 17.612 31.694 17.612H35.4725C36.2309 17.612 36.7855 17.0613 36.7855 16.3029C36.7909 15.046 36.7909 13.7853 36.7855 12.5297C36.7855 11.7755 36.2309 11.2262 35.4832 11.2207Z" fill="white"/>
<path fill-rule="evenodd" clip-rule="evenodd" d="M24.0096 30.3936C27.5429 30.3882 30.3956 27.5302 30.3956 23.9969C30.3902 20.4636 27.5322 17.6123 23.9989 17.6123C20.4777 17.6123 17.6196 20.4743 17.6143 23.9916C17.6089 27.5302 20.4722 30.3936 24.0096 30.3936Z" fill="white"/>
<path fill-rule="evenodd" clip-rule="evenodd" d="M33.5726 27.6078C32.8088 29.623 31.5319 31.2403 29.7565 32.4555C26.5542 34.6423 22.3671 34.8259 19.0013 32.9258C17.2995 31.9625 15.965 30.6279 15.0338 28.9061C13.7569 26.5505 13.4634 24.0598 14.1079 21.459H11.2231V35.4381C11.2231 36.2393 11.7684 36.7833 12.5684 36.7833C13.0815 36.7887 13.5894 36.7833 14.1026 36.7833H35.3988C36.263 36.7833 36.7856 36.2554 36.7856 35.3911V21.4536H33.8969C34.4261 23.5465 34.3309 25.598 33.5726 27.6078Z" fill="white"/>
<path fill-rule="evenodd" clip-rule="evenodd" d="M0 0V48H48V0H0ZM40.6122 11.1739V36.8355C40.6122 38.7248 39.1518 40.3688 37.2732 40.5886C37.1258 40.6046 36.9798 40.6154 36.8337 40.6154H11.1708C9.31369 40.6154 7.68032 39.1857 7.43388 37.3486C7.40308 37.1343 7.38694 36.9145 7.38694 36.7002V11.2837C7.38694 9.3677 8.66922 7.80796 10.553 7.4476C10.7782 7.40477 11.014 7.39 11.2444 7.39C19.7542 7.38462 28.2598 7.38462 36.7654 7.38462C38.7592 7.38462 40.3979 8.86523 40.6015 10.8443C40.6176 10.9541 40.6122 11.0639 40.6122 11.1739Z" fill="white"/>
</g>
<defs>
<clipPath id="clip0_1621_503">
<rect width="48" height="48" fill="white"/>
</clipPath>
</defs>
</svg>
