<svg width="47" height="47" viewBox="0 0 47 47" fill="none" xmlns="http://www.w3.org/2000/svg">
<path d="M7.14286 19.0476H14.2857V39.2857H7.14286V19.0476ZM31.1202 18.3571C33.131 18.369 35.7036 19.3571 37.275 20.9524C38.9048 22.7738 39.2857 24.8321 39.2857 27.381V39.2857H32.1429V28.2262C32.1429 26.2024 31.3226 23.7369 28.644 23.6548C27.0726 23.6798 26.0607 24.5833 25.3095 26.1071C25.0952 26.6071 25.1429 27.1679 25.1429 27.7262L25 39.2857H17.8571V19.0476H25L25.1429 21.6905C25.6298 20.881 26.3083 20.1202 27.1548 19.5131C28.2976 18.6905 29.6321 18.3798 31.1202 18.3571ZM10.7143 9.34524C12.5476 9.37024 14.369 10.8095 14.4405 13C14.4881 14.9536 12.7857 16.6548 10.6667 16.6548H10.619C8.79762 16.6548 7.0119 15.1667 6.92857 13C6.96429 11.0714 8.58333 9.39405 10.7143 9.34524ZM0 0V46.4286H46.4286V0H0Z" fill="white"/>
</svg>
