<svg width="46" height="47" viewBox="0 0 46 47" fill="none" xmlns="http://www.w3.org/2000/svg">
<path d="M46 46.9175H0V0H46V46.9175ZM37.7349 15.8456C37.5616 15.1796 37.2197 14.5717 36.7434 14.0829C36.2672 13.5941 35.6734 13.2415 35.0215 13.0605C31.0454 12.5737 27.0421 12.355 23.0378 12.4057C19.0334 12.356 15.0301 12.5757 11.0541 13.0634C10.4027 13.2449 9.80946 13.5977 9.33377 14.0864C8.85809 14.5752 8.51663 15.1829 8.34356 15.8485C7.9012 18.3484 7.68627 20.8845 7.70153 23.4247C7.68514 25.9657 7.89909 28.5029 8.34066 31.0038C8.51397 31.6698 8.85587 32.2777 9.3321 32.7665C9.80832 33.2553 10.4021 33.6079 11.0541 33.7889C15.0301 34.2766 19.0334 34.4963 23.0378 34.4466C27.0422 34.4953 31.0455 34.2746 35.0215 33.7859C35.6734 33.6049 36.2672 33.2523 36.7434 32.7635C37.2197 32.2747 37.5616 31.6668 37.7349 31.0008C38.1763 28.5009 38.3902 25.9647 38.374 23.4247C38.3904 20.8836 38.1764 18.3465 37.7349 15.8456ZM27.7586 23.4602L19.8973 18.9033V28.026L27.7586 23.4602Z" fill="white"/>
</svg>
