<svg width="20" height="18" viewBox="0 0 20 18" fill="none" xmlns="http://www.w3.org/2000/svg">
<g clip-path="url(#clip0_1071_283)">
<path d="M10.8333 11.2499H10C9.98793 10.7074 10.1176 10.1699 10.3786 9.68073C10.6396 9.19157 11.0245 8.76441 11.5025 8.43365C12.0625 7.93865 12.505 7.54715 12.5 6.8969C12.5021 6.66733 12.4506 6.43992 12.3489 6.22938C12.2471 6.01884 12.0975 5.82984 11.9095 5.67462C11.7216 5.51939 11.4995 5.40138 11.2578 5.32823C11.016 5.25507 10.7598 5.22838 10.5058 5.2499C10.2291 5.22871 9.95054 5.25921 9.68755 5.33947C9.42456 5.41974 9.18283 5.54804 8.97752 5.71634C8.77221 5.88464 8.60776 6.0893 8.49447 6.31749C8.38118 6.54568 8.3215 6.79248 8.31917 7.0424H7.48583C7.47404 6.67738 7.55525 6.31476 7.72325 5.98235C7.89124 5.64994 8.14155 5.35654 8.455 5.12465C9.0383 4.71064 9.76221 4.49002 10.505 4.4999C10.8688 4.47703 11.234 4.52214 11.5775 4.6324C11.921 4.74266 12.2354 4.91568 12.5011 5.14059C12.7667 5.3655 12.9778 5.63743 13.121 5.9393C13.2642 6.24116 13.3365 6.56643 13.3333 6.89465C13.3057 7.30112 13.1798 7.69727 12.9645 8.05543C12.7491 8.4136 12.4496 8.72517 12.0867 8.9684C11.6874 9.2283 11.3645 9.57192 11.1461 9.96949C10.9277 10.3671 10.8204 10.8066 10.8333 11.2499ZM9.58333 13.8749C9.58333 14.0232 9.63221 14.1682 9.72378 14.2916C9.81534 14.4149 9.94549 14.511 10.0978 14.5678C10.25 14.6246 10.4176 14.6394 10.5792 14.6105C10.7409 14.5816 10.8894 14.5101 11.0059 14.4052C11.1225 14.3003 11.2018 14.1667 11.234 14.0212C11.2661 13.8757 11.2496 13.7249 11.1866 13.5879C11.1235 13.4508 11.0167 13.3337 10.8796 13.2513C10.7426 13.1689 10.5815 13.1249 10.4167 13.1249C10.1957 13.1249 9.98369 13.2039 9.82741 13.3446C9.67113 13.4852 9.58333 13.676 9.58333 13.8749ZM19 9.3749C19 10.9028 18.4966 12.3963 17.5534 13.6667C16.6103 14.9371 15.2698 15.9272 13.7014 16.5119C12.133 17.0966 10.4071 17.2495 8.74214 16.9515C7.07714 16.6534 5.54773 15.9177 4.34733 14.8373C3.14693 13.7569 2.32945 12.3805 1.99826 10.882C1.66707 9.38347 1.83705 7.83023 2.4867 6.41867C3.13635 5.00711 4.2365 3.80063 5.64802 2.9518C7.05954 2.10297 8.71904 1.6499 10.4167 1.6499C11.5439 1.64961 12.6602 1.84922 13.7018 2.23733C14.7433 2.62544 15.6896 3.19445 16.4867 3.91184C17.2838 4.62923 17.9161 5.48095 18.3473 6.41832C18.7785 7.3557 19.0003 8.36036 19 9.3749ZM18.1667 9.3749C18.1667 7.99538 17.7121 6.64683 16.8606 5.4998C16.009 4.35277 14.7986 3.45876 13.3825 2.93084C11.9663 2.40292 10.4081 2.26479 8.90472 2.53393C7.40136 2.80306 6.02045 3.46736 4.93659 4.44283C3.85273 5.4183 3.11462 6.66113 2.81558 8.01415C2.51654 9.36717 2.67002 10.7696 3.2566 12.0441C3.84318 13.3186 4.83652 14.408 6.111 15.1744C7.38548 15.9408 8.88386 16.3499 10.4167 16.3499C12.4714 16.3479 14.4414 15.6124 15.8943 14.3048C17.3472 12.9971 18.1645 11.2242 18.1667 9.3749Z" fill="black"/>
</g>
<defs>
<clipPath id="clip0_1071_283">
<rect width="20" height="18" fill="white"/>
</clipPath>
</defs>
</svg>
